<svg xmlns="http://www.w3.org/2000/svg" width="210.527" height="212.108" viewBox="0 0 210.527 212.108"><defs><style>.a{fill:#e6565a;}.b{fill:#fff;}.c{fill:#ffc4ad;}.d{fill:#161711;}.e{fill:#194866;}.f{fill:#f8c44f;}.g{fill:#f4da80;}.h{fill:#b52b09;}.i{fill:#e9d6b8;}.j{fill:#e2c59c;}.k{fill:#163f59;}.l{fill:#7dc2f5;}.m{fill:#8dcfff;}</style></defs><g transform="translate(-826.073 -353.297)"><g transform="translate(-92.254 -427.779)"><g transform="translate(959.653 781.076)"><path class="a" d="M1076.834,781.076h-65.163a5.942,5.942,0,0,0-4.2,1.74l-46.077,46.077a5.942,5.942,0,0,0-1.74,4.2v65.162a5.941,5.941,0,0,0,1.74,4.2l46.077,46.077a5.941,5.941,0,0,0,4.2,1.74h65.163a5.94,5.94,0,0,0,4.2-1.74l46.077-46.077a5.942,5.942,0,0,0,1.74-4.2V833.095a5.943,5.943,0,0,0-1.74-4.2l-46.077-46.077A5.942,5.942,0,0,0,1076.834,781.076Z" transform="translate(-959.653 -781.076)"/><g transform="translate(8.47 8.47)"><path class="b" d="M1114.53,984.085h-55.994a8.484,8.484,0,0,1-6.038-2.5L1012.9,941.99a8.482,8.482,0,0,1-2.5-6.038V879.958a8.483,8.483,0,0,1,2.5-6.038l39.593-39.594a8.484,8.484,0,0,1,6.038-2.5h55.994a8.483,8.483,0,0,1,6.038,2.5l39.594,39.594a8.483,8.483,0,0,1,2.5,6.038v55.995a8.482,8.482,0,0,1-2.5,6.038l-39.594,39.594A8.484,8.484,0,0,1,1114.53,984.085Zm-55.994-146.454a2.714,2.714,0,0,0-1.932.8l-39.594,39.594a2.714,2.714,0,0,0-.8,1.932v55.995a2.714,2.714,0,0,0,.8,1.932l39.594,39.594a2.715,2.715,0,0,0,1.932.8h55.994a2.716,2.716,0,0,0,1.933-.8l39.594-39.594a2.716,2.716,0,0,0,.8-1.932V879.958a2.715,2.715,0,0,0-.8-1.932l-39.594-39.594a2.714,2.714,0,0,0-1.933-.8Z" transform="translate(-1010.403 -831.825)"/></g><path class="b" d="M1363.112,1032.427l-1.141-.988a6.913,6.913,0,0,0-9.722.7l-6.443,7.442a1.519,1.519,0,0,1-2.667-.994h0a16.428,16.428,0,0,0-.094-1.747V989.989a5.611,5.611,0,0,0-5.594-5.594h-.413a5.611,5.611,0,0,0-5.594,5.594v30.491a1.34,1.34,0,0,1-1.34,1.34h0a1.479,1.479,0,0,1-1.479-1.479V984.081a5.423,5.423,0,0,0-5.407-5.407h-.787a5.423,5.423,0,0,0-5.407,5.407v36.5a1.24,1.24,0,0,1-1.24,1.24h0a1.578,1.578,0,0,1-1.578-1.578v-29.1a5.611,5.611,0,0,0-5.594-5.594h-.413a5.611,5.611,0,0,0-5.594,5.594v29.332a1.342,1.342,0,0,1-1.342,1.342h0a1.476,1.476,0,0,1-1.476-1.476V997.395a5.611,5.611,0,0,0-5.594-5.594h-.413a5.611,5.611,0,0,0-5.594,5.594v40.293c0,.112,0,.223.011.333-.006.187-.011.375-.011.564v22.178a16.437,16.437,0,0,0,16.389,16.389h22.178a16.413,16.413,0,0,0,13.783-7.55,34.619,34.619,0,0,1,2.9-3.922l20.374-23.532A6.913,6.913,0,0,0,1363.112,1032.427Z" transform="translate(-1233.35 -945.695)"/></g></g><g transform="translate(826.072 430.04)"><g transform="translate(39.019 8.65)"><g transform="translate(21.905 38.424)"><path class="c" d="M3064.859,1883.663s-1.211.165-.536,6.665a134.248,134.248,0,0,0,3.133,15.9l-.285-15.132S3066.809,1885.31,3064.859,1883.663Z" transform="translate(-3064.118 -1883.663)"/><path class="c" d="M3065.439,1957.465c.235,3.1-1.076,4.527-1.421,5.787a22.7,22.7,0,0,1-.909,2.533c1.153-.775,1.111-1.78,1.466-2.306s.166-.386.324.712c.092.625-.832,1.8-1.328,2.631a2.65,2.65,0,0,0-.437,1.156,12.758,12.758,0,0,0,1.7-1.954,15.867,15.867,0,0,0,1.708-3.258,13.353,13.353,0,0,0-.2-4.22C3066.013,1956.895,3065.27,1955.233,3065.439,1957.465Z" transform="translate(-3063.07 -1939.974)"/></g><path class="c" d="M3042.1,2229.169l.377,8.512,5.359.425,2.378-.293-4.725-1.488-.528-7.082Z" transform="translate(-3020.003 -2112.778)"/><path class="d" d="M3039.884,2265.915l1.168.151.2-.326,4.432.062,2.147-.564s.089-.375-.114-.489a12.184,12.184,0,0,0-2.9-.528s.3.426.062.615a16.7,16.7,0,0,1-3.923-.038c-1.259-.209-1.66-.585-1.7-.481C3039.159,2264.589,3039.884,2265.915,3039.884,2265.915Z" transform="translate(-3016.997 -2139.919)"/><path class="e" d="M3069.161,1944.473l.723,32.214,2.192,31.611-4.829.38s-4.511-31.851-5.047-34.607-6.252-24.855-3.587-30.5S3069.161,1944.473,3069.161,1944.473Z" transform="translate(-3045.433 -1889.856)"/><path class="c" d="M3148.73,1874.808c-2.7,3.254-4.059,16.645-4.059,16.645s.887,5.124,5.848-12.067C3152.007,1874.223,3149.4,1874.007,3148.73,1874.808Z" transform="translate(-3143.905 -1838.112)"/><path class="c" d="M3163.618,1954.088l-1.125-1.237-.612-1.222-.169-2.211a14.78,14.78,0,0,1,.472-3.236c.362-.876.282-4.377.412-4.807s2.336-.954,2.336-.954-.968,3.626-1.23,5.1a32.746,32.746,0,0,0,.008,4.277,6.557,6.557,0,0,1-.517,1.768s-.06-1.568-.028-1.982-.447-.23-.447-.23a13.091,13.091,0,0,0,.055,2.742,3.566,3.566,0,0,0,.579,1.022Z" transform="translate(-3161.712 -1889.189)"/><path class="f" d="M3061.029,1811.144l1.732,18.156v1.056l5.2-.3s-1.505-14.013-1.732-14.69a58.11,58.11,0,0,1-.678-7.609c.076-1.054-.151-6.327-3.616-5.8S3061.029,1811.144,3061.029,1811.144Z" transform="translate(-3041.815 -1781.94)"/><path class="f" d="M3144.358,1810.59l-1.733,18.156v1.056l-5.2-.3c2.342-10.622,2.869-12.731,2.938-14.69.025-.714.151-6.554.074-7.609a5.884,5.884,0,0,1,3.014-5.8C3146.464,1799.6,3144.358,1810.59,3144.358,1810.59Z" transform="translate(-3136.375 -1781.386)"/><path class="c" d="M3121.313,2223.8l-.076,10.923-4.519-1.582s-1.912-1.385-.264-1.205c2.41.262,1.921-.754,2-2.712s-.3-5.725-.3-5.725Z" transform="translate(-3107.729 -2108.385)"/><path class="d" d="M3116.305,2260.883a8.5,8.5,0,0,0,1.054.828,12.328,12.328,0,0,0,2.636,1.206,5.542,5.542,0,0,0,1.469.076s.339,1.13-.413,1.056a27.493,27.493,0,0,1-5.048-2.11C3115.477,2261.561,3115.4,2260.959,3116.305,2260.883Z" transform="translate(-3107.919 -2137.335)"/><path class="e" d="M3125.137,1948.792l.574,29.543.531,31.326-3.816-.2s-3.851-31.532-4.174-34.32-4.942-21.331-1.853-26.75S3125.137,1948.792,3125.137,1948.792Z" transform="translate(-3112.558 -1893.572)"/><path class="g" d="M3079.861,1795.851s5.926.4,7.332,1,1.1,7.533.2,12.657-.5,10.848.8,14.062a57.842,57.842,0,0,1,2.31,9.342l-20.792-.3s4.721-12.756,4.721-17.678-1.3-16.172-1.2-17.277S3078.554,1795.851,3079.861,1795.851Z" transform="translate(-3066.528 -1777.243)"/><g transform="translate(1.953 0)"><path class="h" d="M3085.627,1723.023a5.207,5.207,0,0,0,5.207,5.208l1.3-2.474a5.207,5.207,0,0,0,5.208-5.208V1718.6a5.207,5.207,0,0,0-5.208-5.208h-1.3a5.208,5.208,0,0,0-5.207,5.208Z" transform="translate(-3078.908 -1713.389)"/><path class="h" d="M3070.6,1782.013a7.234,7.234,0,1,0,7.232-7.081A7.157,7.157,0,0,0,3070.6,1782.013Z" transform="translate(-3063.242 -1761.044)"/><path class="h" d="M3086.406,1795.919a7.233,7.233,0,1,0,7.232-7.082A7.157,7.157,0,0,0,3086.406,1795.919Z" transform="translate(-3082.61 -1771.811)"/><path class="h" d="M3084.556,1742.1a6,6,0,0,1,3.533,1.145c-.044,1.615-.136,2.009-.136,3.094a8.528,8.528,0,0,0,2.037,5.867c-1.278,2-2.849,4.058-5.434,4.058a7.083,7.083,0,1,1,0-14.164Z" transform="translate(-3069.681 -1735.621)"/><path class="h" d="M3099.717,1752.623c0-.151-.015-.3-.023-.448a7.345,7.345,0,0,1,2.369-.4,7.083,7.083,0,1,1-6.977,8.927A9.436,9.436,0,0,0,3099.717,1752.623Z" transform="translate(-3092.994 -1743.116)"/><path class="h" d="M3123.663,1792a4.926,4.926,0,1,0,4.926-4.926A4.926,4.926,0,0,0,3123.663,1792Z" transform="translate(-3123.663 -1770.448)"/></g></g><g transform="translate(0)"><g transform="translate(0 1.741)"><path class="d" d="M3318.849,2228.667c.24-.289.066-1.052.066-1.052a27.922,27.922,0,0,0-5.528-.149,6.937,6.937,0,0,0-1.5.7c-.093.053-.26.375-.353.427-.167.1-.255-.069-.4.021a4.874,4.874,0,0,0-.639.443,4,4,0,0,0,.12,2.692s3.443,1.07,4.228.359C3316.844,2230.308,3318.325,2229.3,3318.849,2228.667Z" transform="translate(-3310.282 -2104.465)"/><path class="d" d="M3193.877,2232.586l.6,3.116h3.177s.176-.442.443-.442c.227,0,.52.442.828.442H3207s.143-.655-.033-.882a3.076,3.076,0,0,0-.975-.417c-1.642-.461-6.338-1.9-7.154-3.469C3197.848,2229.026,3193.877,2232.586,3193.877,2232.586Z" transform="translate(-3172.08 -2106.8)"/><path class="i" d="M3229.977,1703.533l.761-3.776s2.682.206,3.2-1.238c1.053-2.9.172-7.524-.462-8.82-1.809-3.692-2.574-10.158-11.03-5.017-3.216,1.957,1.75,11.438,2.121,13.491a8.7,8.7,0,0,1-.73,4.415l1.979,1.484Z" transform="translate(-3205.654 -1682.772)"/><path class="j" d="M3312.959,1927.3l-.28,11.9s-4.485-4.948-4.92-10.575S3312.677,1926.857,3312.959,1927.3Z" transform="translate(-3303.672 -1870.803)"/><path class="k" d="M3298.831,2041.835s1.239.541-2.408,17.848c-2.63,12.463-4.876,21.581-5.926,25.708-.408,1.6-.863,1.313-.863,1.313l-3.476.388-1.654-1.435,4.966-28.242Z" transform="translate(-3284.504 -1960.809)"/><path class="i" d="M3166.705,1886.3l-7.114,13.644s13.576-9.82,12.724-15.224S3166.705,1886.3,3166.705,1886.3Z" transform="translate(-3129.637 -1837.558)"/><path class="l" d="M3301.051,1791.082s-2.884,1.763-4.961,16.088-.753,13.778-.753,13.778l.378,3.263,5.391.579,2.914-12.366Z" transform="translate(-3291.842 -1766.641)"/><path class="k" d="M3247.775,1925.442s-7.958,32.955-14.2,47.728c-3.661,8.651-3.694-7.958-3.694-7.958l5.688-47.854,16.61-.8S3250.291,1917.135,3247.775,1925.442Z" transform="translate(-3225.317 -1863.798)"/><path class="k" d="M3210.212,1912.5s6.014,42.664,6.646,44.59c2.14,6.514,5.436-2.026,6.19-4.2s2.015-18.244,1.763-29.971l-.251-11.727Z" transform="translate(-3193.549 -1859.647)"/><path class="k" d="M3217.259,2061.325s-.909,5.088-1.665,11.589c-.557,4.774-.571,18.409.31,27.881.053.579,6.075-1.186,6.075-1.186s2.2-26.508,2.7-32.443S3221.034,2057.084,3217.259,2061.325Z" transform="translate(-3194.555 -1974.557)"/><path class="m" d="M3200.354,1773.166l7.1-3.223,1.96-1.854,7.549-.181,1.322,2.177,5.853,2.537s1.443,2.27.187,10.7a233.865,233.865,0,0,0-1.686,23.452l-22.127,1.067S3202.429,1777.7,3200.354,1773.166Z" transform="translate(-3191.321 -1748.696)"/><path class="m" d="M3151.32,1787.97s1.317-1.468,4.524,2.52c5.47,6.8,8.118,15.23,8.684,16.863s1.294,3.941-.945,6.653c-1.71,2.076-2.264,2.776-2.264,2.776l-4.91-3.061.773-1.469.551-.728s-2.644-5.8-5.475-11.063S3151.32,1787.97,3151.32,1787.97Z" transform="translate(-3120.386 -1764.027)"/></g><path class="e" d="M3228.972,1684.81s-.957-.589-1.1.146.368,2.352.809,2.5.586,2.131.586,2.131l-1.175,2.205h-5.953s-1.839-.808-1.988-2.132-1.615-10.659-1.615-10.659l4.189-2.205a27.751,27.751,0,0,1,3.751-1.545c2.369-.678,2.866.587,2.792,1.25s.663.735,1.617.735,2.134.734,1.619,1.176c-.214.182.736.763.361,1.465-.54,1-2.345,1.329-2.493,2.946C3230.3,1683.557,3230,1685.984,3228.972,1684.81Z" transform="translate(-3203.532 -1675.058)"/></g></g></g></svg>